HIERARCHY
ROOT Hips
{
    OFFSET   0.000000   0.000000   0.000000
    CHANNELS 6 Xposition Yposition Zposition Zrotation Xrotation Yrotation
    JOINT Chest
    {
        OFFSET   0.000000   8.007230   0.000000
        CHANNELS 3 Zrotation Xrotation Yrotation
        JOINT Chest2
        {
            OFFSET   0.000000  22.077100   0.000000
            CHANNELS 3 Zrotation Xrotation Yrotation
            JOINT Neck
            {
                OFFSET   0.000000  23.254800  -0.000021
                CHANNELS 3 Zrotation Xrotation Yrotation
                JOINT Head
                {
                    OFFSET   0.000000  14.370000   1.956610
                    CHANNELS 3 Zrotation Xrotation Yrotation
                    End Site
                    {
                        OFFSET   0.000000  19.566000   0.000000
                    }
                }
            }
            JOINT LeftCollar
            {
                OFFSET   3.911900  19.017000  -0.467063
                CHANNELS 3 Zrotation Xrotation Yrotation
                JOINT LeftShoulder
                {
                    OFFSET  10.383700   0.000000   0.000000
                    CHANNELS 3 Zrotation Xrotation Yrotation
                    JOINT LeftElbow
                    {
                        OFFSET  26.662100   0.001529   0.000325
                        CHANNELS 3 Zrotation Xrotation Yrotation
                        JOINT LeftWrist
                        {
                            OFFSET  28.869000  -0.000011  -0.000096
                            CHANNELS 3 Zrotation Xrotation Yrotation
                            JOINT LeftFinger0
                            {
                                OFFSET   2.044650  -2.323460   3.252850
                                CHANNELS 3 Zrotation Xrotation Yrotation
                                JOINT LeftFinger01
                                {
                                    OFFSET   3.088130   0.000000   0.000000
                                    CHANNELS 3 Zrotation Xrotation Yrotation
                                    JOINT LeftFinger02
                                    {
                                        OFFSET   2.639460   0.000000   0.000000
                                        CHANNELS 3 Zrotation Xrotation Yrotation
                                        End Site
                                        {
                                            OFFSET   2.582190   0.000000   0.000000
                                        }
                                    }
                                }
                            }
                            JOINT LeftFinger1
                            {
                                OFFSET   8.364480   0.000000   3.252850
                                CHANNELS 3 Zrotation Xrotation Yrotation
                                JOINT LeftFinger11
                                {
                                    OFFSET   4.646930   0.000000   0.000000
                                    CHANNELS 3 Zrotation Xrotation Yrotation
                                    JOINT LeftFinger12
                                    {
                                        OFFSET   2.323460   0.000000   0.000000
                                        CHANNELS 3 Zrotation Xrotation Yrotation
                                        End Site
                                        {
                                            OFFSET   2.273050   0.000000   0.000000
                                        }
                                    }
                                }
                            }
                            JOINT LeftFinger2
                            {
                                OFFSET   8.364480   0.000016   1.078090
                                CHANNELS 3 Zrotation Xrotation Yrotation
                                JOINT LeftFinger21
                                {
                                    OFFSET   5.111620   0.000000   0.000000
                                    CHANNELS 3 Zrotation Xrotation Yrotation
                                    JOINT LeftFinger22
                                    {
                                        OFFSET   2.788160   0.000017   0.000000
                                        CHANNELS 3 Zrotation Xrotation Yrotation
                                        End Site
                                        {
                                            OFFSET   2.727660   0.000000   0.000000
                                        }
                                    }
                                }
                            }
                            JOINT LeftFinger3
                            {
                                OFFSET   7.899780   0.000015  -1.078090
                                CHANNELS 3 Zrotation Xrotation Yrotation
                                JOINT LeftFinger31
                                {
                                    OFFSET   4.646920   0.000000   0.000000
                                    CHANNELS 3 Zrotation Xrotation Yrotation
                                    JOINT LeftFinger32
                                    {
                                        OFFSET   2.323470   0.000000   0.000000
                                        CHANNELS 3 Zrotation Xrotation Yrotation
                                        End Site
                                        {
                                            OFFSET   2.273050   0.000000   0.000000
                                        }
                                    }
                                }
                            }
                            JOINT LeftFinger4
                            {
                                OFFSET   7.435090   0.000000  -3.252850
                                CHANNELS 3 Zrotation Xrotation Yrotation
                                JOINT LeftFinger41
                                {
                                    OFFSET   3.717550   0.000000   0.000000
                                    CHANNELS 3 Zrotation Xrotation Yrotation
                                    JOINT LeftFinger42
                                    {
                                        OFFSET   1.858760   0.000000   0.000000
                                        CHANNELS 3 Zrotation Xrotation Yrotation
                                        End Site
                                        {
                                            OFFSET   1.818440   0.000000   0.000000
                                        }
                                    }
                                }
                            }
                        }
                    }
                }
            }
            JOINT RightCollar
            {
                OFFSET  -3.911900  19.017000  -0.467062
                CHANNELS 3 Zrotation Xrotation Yrotation
                JOINT RightShoulder
                {
                    OFFSET -10.383700   0.000015   0.000000
                    CHANNELS 3 Zrotation Xrotation Yrotation
                    JOINT RightElbow
                    {
                        OFFSET -26.662100   0.001341   0.000385
                        CHANNELS 3 Zrotation Xrotation Yrotation
                        JOINT RightWrist
                        {
                            OFFSET -28.869000   0.000025  -0.000080
                            CHANNELS 3 Zrotation Xrotation Yrotation
                            JOINT RightFinger0
                            {
                                OFFSET  -2.044650  -2.323490   3.252850
                                CHANNELS 3 Zrotation Xrotation Yrotation
                                JOINT RightFinger01
                                {
                                    OFFSET  -3.088130   0.000000   0.000000
                                    CHANNELS 3 Zrotation Xrotation Yrotation
                                    JOINT RightFinger02
                                    {
                                        OFFSET  -2.639460   0.000000   0.000000
                                        CHANNELS 3 Zrotation Xrotation Yrotation
                                        End Site
                                        {
                                            OFFSET  -2.582190   0.000000   0.000000
                                        }
                                    }
                                }
                            }
                            JOINT RightFinger1
                            {
                                OFFSET  -8.364480   0.000000   3.252850
                                CHANNELS 3 Zrotation Xrotation Yrotation
                                JOINT RightFinger11
                                {
                                    OFFSET  -4.646930   0.000000   0.000000
                                    CHANNELS 3 Zrotation Xrotation Yrotation
                                    JOINT RightFinger12
                                    {
                                        OFFSET  -2.323470   0.000000   0.000000
                                        CHANNELS 3 Zrotation Xrotation Yrotation
                                        End Site
                                        {
                                            OFFSET  -2.273050   0.000000   0.000000
                                        }
                                    }
                                }
                            }
                            JOINT RightFinger2
                            {
                                OFFSET  -8.364480   0.000000   1.078090
                                CHANNELS 3 Zrotation Xrotation Yrotation
                                JOINT RightFinger21
                                {
                                    OFFSET  -5.111610   0.000000   0.000000
                                    CHANNELS 3 Zrotation Xrotation Yrotation
                                    JOINT RightFinger22
                                    {
                                        OFFSET  -2.788160   0.000000   0.000000
                                        CHANNELS 3 Zrotation Xrotation Yrotation
                                        End Site
                                        {
                                            OFFSET  -2.727660   0.000000   0.000000
                                        }
                                    }
                                }
                            }
                            JOINT RightFinger3
                            {
                                OFFSET  -7.899780   0.000000  -1.078090
                                CHANNELS 3 Zrotation Xrotation Yrotation
                                JOINT RightFinger31
                                {
                                    OFFSET  -4.646920   0.000000   0.000000
                                    CHANNELS 3 Zrotation Xrotation Yrotation
                                    JOINT RightFinger32
                                    {
                                        OFFSET  -2.323470   0.000000   0.000000
                                        CHANNELS 3 Zrotation Xrotation Yrotation
                                        End Site
                                        {
                                            OFFSET  -2.273050   0.000000   0.000000
                                        }
                                    }
                                }
                            }
                            JOINT RightFinger4
                            {
                                OFFSET  -7.435090   0.000000  -3.252850
                                CHANNELS 3 Zrotation Xrotation Yrotation
                                JOINT RightFinger41
                                {
                                    OFFSET  -3.717550   0.000000   0.000000
                                    CHANNELS 3 Zrotation Xrotation Yrotation
                                    JOINT RightFinger42
                                    {
                                        OFFSET  -1.858770   0.000000   0.000000
                                        CHANNELS 3 Zrotation Xrotation Yrotation
                                        End Site
                                        {
                                            OFFSET  -1.818440   0.000000   0.000000
                                        }
                                    }
                                }
                            }
                        }
                    }
                }
            }
        }
    }
    JOINT LeftHip
    {
        OFFSET   9.783010   0.000000   0.000000
        CHANNELS 3 Zrotation Xrotation Yrotation
        JOINT LeftKnee
        {
            OFFSET   0.000070 -41.789100   0.000028
            CHANNELS 3 Zrotation Xrotation Yrotation
            JOINT LeftAnkle
            {
                OFFSET   0.000087 -41.133200  -0.000100
                CHANNELS 3 Zrotation Xrotation Yrotation
                JOINT LeftToe
                {
                    OFFSET   0.000000  -6.358960  14.674500
                    CHANNELS 3 Zrotation Xrotation Yrotation
                    End Site
                    {
                        OFFSET   0.000000   0.000000   3.913200
                    }
                }
            }
        }
    }
    JOINT RightHip
    {
        OFFSET  -9.783020   0.000000   0.000000
        CHANNELS 3 Zrotation Xrotation Yrotation
        JOINT RightKnee
        {
            OFFSET   0.000044 -41.789100  -0.000870
            CHANNELS 3 Zrotation Xrotation Yrotation
            JOINT RightAnkle
            {
                OFFSET  -0.000090 -41.133200  -0.000245
                CHANNELS 3 Zrotation Xrotation Yrotation
                JOINT RightToe
                {
                    OFFSET   0.000000  -6.358960  14.674500
                    CHANNELS 3 Zrotation Xrotation Yrotation
                    End Site
                    {
                        OFFSET   0.000000   0.000000   3.913200
                    }
                }
            }
        }
    }
}
MOTION
Frames: 4
Frame Time:   0.016667
 -1.676020  89.476000  -0.018942  -1.614100  -8.608430  -5.725250   2.246480   7.388910  -3.072350   4.954350  14.638800  -6.518100   6.196890   2.327510  -0.252676  10.225500   4.554280   5.847340  -1.591950   5.424670   9.521500 -76.639200  18.434700  -7.847100  -1.608790  -0.842754 -16.843000   5.783040 -10.620500  -4.228100  39.626200  26.511600 -50.223000 -27.046900   0.002753   0.003485  -8.523430   0.001097   0.001965 -27.531100  -0.061219   0.117433 -22.525600   0.021644  -0.016380 -15.767900   0.016945  -0.010796 -29.360300  -0.503895   6.717690 -43.796900  -0.005402   0.005570 -29.168800  -0.004269   0.004638 -27.651100  -3.590700   6.816600 -31.161400   0.010020  -0.007472 -20.753600   0.008569  -0.003505 -31.503700  -4.042050   6.560350 -47.603000   0.008906   0.000378 -31.703600   0.005634  -0.001107   0.614748   1.480130   3.456860  57.509600 -21.543600  47.131200   2.662610 -21.313600 110.223000  92.742000 -41.555700  80.299600 -47.027700  25.409000  53.008600 -22.529700   0.002827  -0.007303 -14.999700   0.006816  -0.005947  11.667800  -1.126930  -5.443210   9.590030   0.010193  -0.001686   6.713020   0.001042   0.002110  88.996100  -5.556280  -0.097670  98.120500   0.000327   0.004663  73.590400   0.002147   0.001430  88.990000  -5.556280  -0.097186  99.760400   0.007979   0.002649  74.820400   0.001682  -0.000714  88.984600  -9.997030  -0.176308 110.000000  -0.005522  -0.002700  79.999900  -0.005228   0.003640   3.619860  10.918900   0.556068  -0.011899   2.162780  17.132600  -3.732760  -3.828060   0.353553  -0.000000   0.000000   0.000000  -0.759183  10.408900  -6.274360   0.647986   1.294780  -7.034200  -0.502262  -2.756870   5.384910  -0.000000   0.000000  -0.000000
 -1.708970  89.472900  -0.003326  -1.582620  -8.644700  -5.538350   2.199950   7.370200  -2.983780   4.847330  14.608300  -6.331650   6.056990   2.189870  -0.232318   9.989770   4.291300   6.267630  -1.618610   5.356870   9.418610 -76.527800  18.371500  -7.918570  -1.595840  -0.904026 -16.936800   5.787680 -10.636000  -4.212420  39.735300  26.843600 -50.414200 -27.110200   0.002750   0.003509  -8.555080   0.001098   0.001953 -27.543100  -0.044589   0.085489 -22.535700   0.038971  -0.023631 -15.774900   0.029940  -0.010877 -29.387700  -0.514770   6.709620 -43.840200  -0.022317   0.013971 -29.197600  -0.016862   0.004714 -27.656300  -3.587930   6.809910 -31.189800   0.001910   0.001994 -20.772500   0.000810   0.001274 -31.572000  -4.046160   6.549540 -47.705300  -0.024437   0.009598 -31.771700  -0.017427  -0.001177   0.583713   1.446150   3.425320  57.212900 -21.476800  47.527900   2.591810 -21.368300 109.987000  92.608000 -41.652000  80.167000 -47.157100  25.459000  52.826500 -22.580700   0.002894  -0.007360 -14.999700   0.006870  -0.005996  12.133200  -1.144040  -5.309370   9.970490   0.010215  -0.001586   6.979350   0.001033   0.002139  88.996100  -5.428550  -0.095244  98.240300   0.000327   0.004739  73.680300   0.002204   0.001481  88.990400  -5.428540  -0.094388  99.867500   0.008091   0.002743  74.900700   0.001738  -0.000698  88.984600  -9.997030  -0.176311 110.000000  -0.005577  -0.002727  79.999900  -0.005186   0.003674   3.626180  10.925700   0.547937   0.012293   2.196950  17.040700  -3.758810  -3.836680   0.267412  -0.000000   0.000000   0.000000  -0.744375  10.475700  -6.276310   0.677706   1.295040  -7.137160  -0.537463  -2.788050   5.304570   0.000000   0.000000   0.000000
 -1.744140  89.467000   0.017185  -1.547870  -8.699870  -5.314150   2.150610   7.352120  -2.899790   4.735330  14.578800  -6.154140   5.925620   2.073860  -0.215170   9.769380   4.069600   6.688200  -1.659110   5.285650   9.344180 -76.414900  18.300900  -7.982190  -1.598530  -0.963292 -17.047000   5.795730 -10.746100  -4.234410  39.671400  26.630100 -50.240500 -27.040000  -0.010461  -0.004238  -8.520010  -0.004127  -0.007028 -27.554400  -0.056473   0.108207 -22.545000   0.019570  -0.001623 -15.781400   0.013244   0.000667 -29.434900  -0.531782   6.695550 -43.914600   0.024511   0.001812 -29.247100   0.015311   0.004873 -27.662400  -3.582840   6.798570 -31.222400  -0.023092   0.029633 -20.794200  -0.019642   0.015400 -31.648500  -4.047780   6.533650 -47.819300  -0.081527   0.028851 -31.847700  -0.057930  -0.005714   0.538822   1.420230   3.429190  56.923900 -21.439800  47.902000   2.518370 -21.411900 109.747000  92.484800 -41.787100  80.033100 -47.203900  25.418000  52.636200 -22.611300   0.002949  -0.007426 -14.999700   0.006927  -0.006048  12.565500  -1.167480  -5.222800  10.324400   0.010245  -0.001480   7.227050   0.001023   0.002168  88.996100  -5.348690  -0.093449  98.390800   0.000313   0.004819  73.793100   0.002264   0.001518  88.990700  -5.348680  -0.093014 100.011000   0.008200   0.002810  75.007900   0.001800  -0.000695  88.984600  -9.997040  -0.176311 110.000000  -0.005636  -0.002754  79.999900  -0.005145   0.003701   3.637270  10.948500   0.522248   0.035578   2.229960  16.937300  -3.787320  -3.845040   0.170719   0.000000   0.000000   0.000000  -0.723319  10.568500  -6.316410   0.706612   1.291540  -7.226510  -0.576409  -2.819450   5.212590  -0.000000   0.000000  -0.000000
 -1.781180  89.459500   0.040059  -1.510990  -8.765610  -5.069260   2.098640   7.334870  -2.815190   4.618040  14.551000  -5.975160   5.799070   1.975670  -0.200567   9.557850   3.882160   7.104820  -1.696110   5.219780   9.273750 -76.320500  18.208500  -8.040420  -1.600430  -0.992932 -17.155600   5.806880 -10.887600  -4.265080  39.621300  26.359600 -50.023200 -26.937500  -0.023668  -0.011985  -8.468790  -0.009351  -0.016000 -27.564600  -0.077137   0.147715 -22.553200  -0.005862   0.020596 -15.787200  -0.007360   0.012484 -29.483800  -0.550406   6.680910 -43.991900   0.071339  -0.010346 -29.298600   0.047485   0.005101 -27.668500  -3.577480   6.786810 -31.254600  -0.042656   0.049862 -20.815700  -0.035328   0.025744 -31.725900  -4.049260   6.517230 -47.934500  -0.124270   0.042145 -31.924500  -0.086560  -0.012350   0.493926   1.398110   3.433070  56.635400 -21.410400  48.259100   2.447250 -21.462000 109.491000  92.402700 -41.925100  79.937500 -47.220700  25.385400  52.499600 -22.630900   0.003000  -0.007492 -14.999700   0.006984  -0.006098  12.968500  -1.193610  -5.166180  10.654600   0.010274  -0.001370   7.458210   0.001014   0.002195  88.995900  -5.299110  -0.092227  98.556500   0.000293   0.004900  73.917400   0.002325   0.001557  88.990800  -5.299110  -0.092337 100.167000   0.008309   0.002876  75.125200   0.001865  -0.000693  88.984600  -9.997050  -0.176309 110.000000  -0.005694  -0.002779  79.999900  -0.005103   0.003729   3.652220  10.982000   0.492391   0.057238   2.260650  16.821500  -3.817010  -3.851830   0.068733  -0.000000   0.000000   0.000000  -0.695666  10.669000  -6.375190   0.733738   1.288050  -7.310450  -0.617805  -2.854520   5.101820  -0.000000   0.000000  -0.000000
